<svg xmlns="http://www.w3.org/2000/svg" width="1920" height="371.031" viewBox="0 0 1920 371.031">
  <g id="Layer_2" data-name="Layer 2" transform="translate(1920 371.031) rotate(180)">
    <g id="Layer_1" data-name="Layer 1">
      <path id="Path_1" data-name="Path 1" d="M0,0V352.121c.609,5.073,1.725,16.792,1.725,16.589,0,2.131,19.075,5.885,19.075-5.682,0-6.341,18.517-7.965,18.517-15.219,0,4.718,24.554,2.638,24.554,0,0-.71,19.278-12.632,19.278-13.19,0,3.095,22.879-10.146,22.879-4.16s24.249,0,24.249-.913c0-3.754,18.212-12.581,18.212-15.879,0-1.522,22.626-2.536,22.626-5.073,0,5.073,18.923-16.284,18.923-14.052,0,1.065,24.351,1.776,24.351-.254,0,5.428,20.9-5.073,20.9-7.61,0-10.856,20.292-12.378,20.292-16.132S281.2,283.99,281.2,280.692c0,5.682,25.365,3.095,25.365-1.167,0,1.674,24.3-13.241,24.3-8.827,0-2.739,22.677.66,22.677-2.638.3-4.261,16.792-14.407,16.792-13.7,0-.964,16.132-11.567,16.132-13.647,0-5.53,22.829-1.674,22.829-.406,0,2.384,21.611-2.283,21.611-1.826,0,1.319,21.865-13.19,21.865-14.2,0,2.537,22.727,6.849,22.727,9.69,0-4.616,22.22-9.791,22.22-4.464,0-5.073,22.524-3.855,22.524,3.145,0,0,22.372,3.8,22.372-.457a155.383,155.383,0,0,0,22.068-10.5c0,.406,22.271,3.247,22.271-2.587,0-1.623,20.8,5.073,20.8,3.044,0,.609,18.77,13.647,18.77,9.132,0,2.384,18.517,10.146,18.517,12.784,0-3.754,14.255,16.234,14.255,17.806,0-.66,18.517,5.479,18.517,12.987,0,.812,21.916.862,21.916,4.211,0,2.08,24.3,2.486,24.3,3.145a138.185,138.185,0,0,0,17.6-18.415c0,6.646,18.973-15.219,18.973-13.494,0,4.819,22.575-2.537,22.575-8.269,0-2.232,19.481-2.232,19.481-8.371,0-.406,17.2-15.98,17.2-13.9,0,6.392,21.1.862,21.1-4.211,0-3.348,21.865,5.733,21.865.507,0,5.682,19.734-6.9,19.734-7.965,0-4.363,21.763,7.863,21.763,4.515,0-5.479,19.683-15.219,19.683-12.936,0,.457,20.9-5.073,20.9-3.4,0-2.892,21.256,0,21.256,4.414,0-7.762,21.1,10.146,21.1,8.472,0-5.783,20.6-18.618,20.6-14.154,0-.3,20.8,6.088,20.8,3.095,0-10.146,21.358-3.957,21.358-1.776,0,3.4,17.959,19.328,17.959,16.538,0,8.168,17.3,12.226,17.3,10.146,0,1.522,20.292,6.646,20.292,5.073,0,1.725,19.734-1.877,19.734,7.305,0,5.479,22.169-3.754,22.169,2.993a233.04,233.04,0,0,1,15.219,19.125c0-3.348,21.053,10.6,21.053,7.762,0-4.769,21.1,7.863,21.1,7.61,0,2.08,23.285-3.8,23.285-1.37,0-3.3,21.966,1.116,21.966,1.319,0-1.573,21.205,2.841,21.205,6.95,0,1.674,21.916,8.371,21.916,8.878,0-1.826,22.321-2.942,22.321-4.211,0,0,21.662-14.458,21.662-6.8,0-9.182,21.053-4.515,21.053-6.544a120.888,120.888,0,0,0,24.909,8.573c0-2.79,20.292-12.175,20.292-10.6,0-5.885,17.7-18.567,17.7-16.944s21.155-4.566,21.155-7.762,24.3,1.116,24.3,3.653c0-1.928,21.408-7.1,21.408-7.305,0-3.4,22.372,4.414,22.372,3.8s21.053,3.4,21.053,6.747,22.372,4.363,22.372.457c0,.66,21.155,11.769,21.155,6.8,0,1.471,24.351-9.791,24.351-4.414s19.683,11.871,19.683,11.922,21.713,6.138,21.713,12.023c0,2.638,23.082-16.893,23.082-10.6,0,4.363,20.9-11.972,20.9-11.313,0,3.095,26.126,5.073,26.126,8.776,0,6.291,19.836-20.292,19.836-14.458,0,1.116,24.351,2.384,24.351,3.348,0,2.435,18.922-5.631,18.922-6.443,0,1.37,19.734,2.638,19.734,1.37,0,2.131,20.8-6.443,20.8-5.073,0-.812,22.22-3.754,22.22.913,0,.507,13.545,12.784,13.545,18.364,0,9.537,20.292,3.8,20.292,9.588,0-3.044,21.611-3.855,21.611,7.457,0-.812,12.277,24.909,12.277,22.372,0-5.073,9.131-.71,15.574,2.435V0Z" fill="#fff"/>
    </g>
  </g>
</svg>
